<svg xmlns="http://www.w3.org/2000/svg" xmlns:xlink="http://www.w3.org/1999/xlink" width="800" zoomAndPan="magnify" viewBox="0 0 600 599.999999" height="800" preserveAspectRatio="xMidYMid meet" version="1.0"><defs><clipPath id="129236d888"><path d="M 0 94.875 L 600 94.875 L 600 505 L 0 505 Z M 0 94.875 " clip-rule="nonzero"/></clipPath><clipPath id="28e1437cdd"><path d="M 419.597656 384.761719 L 496 384.761719 L 496 438 L 419.597656 438 Z M 419.597656 384.761719 " clip-rule="nonzero"/></clipPath></defs><g clip-path="url(#129236d888)"><path fill="#ffffff" d="M 574.53125 134.445312 C 558.28125 105.667969 540.632812 100.382812 504.730469 98.367188 C 468.851562 95.941406 378.640625 94.933594 300.5 94.933594 C 222.199219 94.933594 131.953125 95.941406 96.113281 98.324219 C 60.285156 100.382812 42.179688 105.632812 25.785156 134.445312 C 9.039062 163.1875 0 212.6875 0 299.832031 L 0 300.128906 C 0 386.898438 9.035156 436.769531 25.78125 465.207031 C 42.179688 493.988281 60.027344 499.203125 95.867188 501.621094 C 131.738281 503.714844 222.089844 504.945312 300.390625 504.945312 C 378.53125 504.945312 468.789062 503.714844 504.699219 501.664062 C 540.613281 499.242188 558.28125 494.019531 574.535156 465.246094 C 591.417969 436.808594 600 386.9375 600 300.160156 L 600 299.867188 C 600 212.6875 591.449219 163.1875 574.53125 134.445312 Z M 225 411.761719 L 225 188.121094 L 412.222656 299.941406 Z M 225 411.761719 " fill-opacity="1" fill-rule="nonzero"/></g><g clip-path="url(#28e1437cdd)"><path fill="#ffffff" d="M 428.132812 436.378906 C 424.859375 435.492188 422.308594 432.882812 421.363281 429.664062 C 419.808594 423.726562 419.808594 411.347656 419.808594 411.347656 C 419.808594 411.347656 419.808594 398.972656 421.363281 393.089844 C 422.304688 389.8125 424.859375 387.257812 428.132812 386.367188 C 434.019531 384.761719 457.773438 384.761719 457.773438 384.761719 C 457.773438 384.761719 481.585938 384.761719 487.46875 386.367188 C 490.796875 387.257812 493.292969 389.8125 494.183594 393.085938 C 495.789062 398.96875 495.789062 411.347656 495.789062 411.347656 C 495.789062 411.347656 495.789062 423.726562 494.183594 429.660156 C 493.292969 432.878906 490.796875 435.488281 487.46875 436.375 C 481.585938 437.984375 457.773438 437.984375 457.773438 437.984375 C 457.773438 437.984375 434.019531 437.984375 428.132812 436.375 Z M 450.226562 422.785156 L 469.929688 411.351562 L 450.226562 399.96875 Z M 450.226562 422.785156 " fill-opacity="1" fill-rule="nonzero"/></g><path fill="#ffffff" d="M 450.226562 422.785156 L 469.929688 411.347656 L 450.226562 399.96875 Z M 450.226562 422.785156 " fill-opacity="1" fill-rule="nonzero"/></svg>