<svg xmlns="http://www.w3.org/2000/svg" xmlns:xlink="http://www.w3.org/1999/xlink" width="500" zoomAndPan="magnify" viewBox="0 0 375 374.999991" height="500" preserveAspectRatio="xMidYMid meet" version="1.0"><defs><clipPath id="4d7968274b"><path d="M 0 56.789062 L 375 56.789062 L 375 318.539062 L 0 318.539062 Z M 0 56.789062 " clip-rule="nonzero"/></clipPath></defs><g clip-path="url(#4d7968274b)"><path fill="#e9333d" d="M 41.816406 310.632812 C 25.726562 306.257812 13.207031 293.441406 8.5625 277.609375 C 0.929688 248.398438 0.929688 187.523438 0.929688 187.523438 C 0.929688 187.523438 0.929688 126.667969 8.5625 97.738281 C 13.1875 81.625 25.726562 69.066406 41.816406 64.695312 C 70.703125 56.789062 187.34375 56.789062 187.34375 56.789062 C 187.34375 56.789062 304.265625 56.789062 333.152344 64.695312 C 349.5 69.066406 361.761719 81.625 366.125 97.71875 C 374.019531 126.648438 374.019531 187.523438 374.019531 187.523438 C 374.019531 187.523438 374.019531 248.398438 366.125 277.585938 C 361.761719 293.421875 349.5 306.238281 333.152344 310.609375 C 304.265625 318.515625 187.34375 318.515625 187.34375 318.515625 C 187.34375 318.515625 70.703125 318.515625 41.816406 310.609375 Z M 150.285156 243.765625 L 247.03125 187.542969 L 150.285156 131.578125 Z M 150.285156 243.765625 " fill-opacity="1" fill-rule="nonzero"/></g><path fill="#ffffff" d="M 150.285156 243.765625 L 247.03125 187.523438 L 150.285156 131.578125 Z M 150.285156 243.765625 " fill-opacity="1" fill-rule="nonzero"/></svg>